<svg id="PLANT" xmlns="http://www.w3.org/2000/svg" viewBox="0 0 500 500"><defs><style>.cls-1{fill:#9ab3da;}.cls-2{fill:#404b7c;}.cls-3{fill:#f68d88;}.cls-4{fill:#ecbdbb;}.cls-5{fill:#e4ebf7;}.cls-6{fill:#fff;}</style></defs><title>Analytic</title><path class="cls-1" d="M411.67,398.58s-9.62-19.62-.75-45,26-34.62,26-34.62S440.79,368.21,411.67,398.58Z"/><path class="cls-2" d="M421.87,352.5a67.9,67.9,0,0,1-4.89-8.23c-0.4-.78-0.74-1.48-1-2.09l-0.58,1.09a72.66,72.66,0,0,0,5.69,9.8Z"/><path class="cls-2" d="M422.71,365.94c-1.63.29-3,.45-3.94,0.52l-1.1.07h-0.38v1a43.28,43.28,0,0,0,13.81-2.94c0.13-.41.26-0.82,0.39-1.23A42.93,42.93,0,0,1,422.71,365.94Z"/><path class="cls-2" d="M415,379.43l0.64-.77a55.2,55.2,0,0,1-5.79-6.12c-0.91-1.08-1.72-2.08-2.29-2.8l-0.1-.13q-0.07.73-.12,1.45c0.5,0.62,1.09,1.34,1.75,2.12A56,56,0,0,0,415,379.43Z"/><path class="cls-2" d="M408.3,422.71s3-58.58,21.75-91.54c0,0-15.5,30.79-20.1,91.54H408.3Z"/><path class="cls-1" d="M418.41,412.25s0.44-17.36,16-32,31-14.83,31-14.83S450.09,401.57,418.41,412.25Z"/><path class="cls-2" d="M442.54,383.55a54,54,0,0,1-.42-7.59c0-.7,0-1.32,0-1.85l-0.81.56a57.73,57.73,0,0,0,.4,9Z"/><path class="cls-2" d="M438.19,393.32c-1.25-.39-2.27-0.78-3-1.08l-0.8-.35-0.27-.13-0.36.71a34.39,34.39,0,0,0,10.81,3l0.72-.72A34.11,34.11,0,0,1,438.19,393.32Z"/><path class="cls-2" d="M427.78,400l0.73-.31a43.86,43.86,0,0,1-1.83-6.44c-0.24-1.1-.45-2.1-0.59-2.82l0-.13-0.62,1c0.12,0.62.28,1.35,0.45,2.13A44.46,44.46,0,0,0,427.78,400Z"/><path class="cls-2" d="M407,427.88s23.77-40,49.1-56.35c0,0-21.94,16-47.51,57.14Z"/><path class="cls-1" d="M397.16,412.58s0.3-16.25-13.66-30.54-28.41-15.13-28.41-15.13S368,401.3,397.16,412.58Z"/><path class="cls-2" d="M375.78,384.76a50.47,50.47,0,0,0,.7-7.08c0-.65,0-1.23,0-1.73l0.74,0.55a54,54,0,0,1-.74,8.39Z"/><path class="cls-2" d="M379.45,394.07c1.19-.31,2.15-0.64,2.82-0.89l0.76-.3,0.26-.11,0.31,0.68a32.17,32.17,0,0,1-10.22,2.37l-0.65-.7A31.92,31.92,0,0,0,379.45,394.07Z"/><path class="cls-2" d="M388.9,400.72l-0.67-.32a41,41,0,0,0,2-5.94c0.27-1,.5-1.94.66-2.61l0-.12,0.54,0.94c-0.14.57-.31,1.25-0.51,2A41.6,41.6,0,0,1,388.9,400.72Z"/><path class="cls-2" d="M407.14,427.65S386.56,389.26,363.56,373c0,0,19.85,15.89,42.07,55.35Z"/><path class="cls-1" d="M400.68,393.44s8.12-16,1.09-37-21-28.74-21-28.74S377.05,368.17,400.68,393.44Z"/><path class="cls-2" d="M392.78,355.45a55.82,55.82,0,0,0,4.11-6.71c0.34-.64.63-1.21,0.87-1.71l0.47,0.91a59.74,59.74,0,0,1-4.78,8Z"/><path class="cls-2" d="M391.95,366.49c1.34,0.26,2.45.4,3.23,0.47l0.9,0.07h0.31l0,0.82a35.58,35.58,0,0,1-11.32-2.56l-0.3-1A35.3,35.3,0,0,0,391.95,366.49Z"/><path class="cls-2" d="M398.16,377.66l-0.52-.64a45.38,45.38,0,0,0,4.83-5c0.76-.88,1.43-1.69,1.91-2.28l0.08-.1q0,0.6.08,1.2c-0.42.5-.91,1.09-1.46,1.72A46,46,0,0,1,398.16,377.66Z"/><path class="cls-2" d="M404.92,422.71s-3.57-57.59-18.64-84.88c0,0,12.66,25.21,17.2,84.82Z"/><polygon class="cls-3" points="423.88 469.63 387.21 469.63 380.21 421.29 430.88 421.29 423.88 469.63"/><path class="cls-4" d="M412.42,437.21c-10-5.87-11.5,3.25-16.12,12.88-3.31,6.88-8.66,4.95-11.44,3.28l0.67,4.62c8.7,6.82,15.19-2.92,17.89-11.15,2.88-8.75,4.94-6,14.13-.87a10.25,10.25,0,0,0,9.7.45l1.12-7.72C425.18,441.65,420,441.68,412.42,437.21Z"/><path class="cls-4" d="M412.6,421.29H400c-8.8,4.48-14.94,12.17-17.49,15.79l1.22,8.4C390.77,430.82,404.16,424.15,412.6,421.29Z"/><path class="cls-4" d="M397.84,469.62h14.87a52.78,52.78,0,0,0,12.49-9.11l1.07-7.39C418.16,462.57,406.87,467.28,397.84,469.62Z"/><ellipse class="cls-4" cx="410.17" cy="450.54" rx="2.79" ry="3.25" transform="translate(-53.22 54.94) rotate(-7.2)"/><ellipse class="cls-4" cx="422.24" cy="428.69" rx="4.03" ry="3.46" transform="translate(-176.41 489.32) rotate(-51.22)"/><path class="cls-3" d="M240.28,281V270.46h-6a22.78,22.78,0,0,0-2.79-6.74l4.21-4.21L228.27,252l-4.21,4.21a22.78,22.78,0,0,0-6.74-2.79v-6H206.74v6a22.78,22.78,0,0,0-6.74,2.79L195.8,252l-7.48,7.48,4.21,4.21a22.78,22.78,0,0,0-2.79,6.74h-6V281h6a22.78,22.78,0,0,0,2.79,6.74L188.32,292l7.48,7.48,4.21-4.21a22.78,22.78,0,0,0,6.74,2.79v6h10.58v-6a22.78,22.78,0,0,0,6.74-2.79l4.21,4.21,7.48-7.48-4.21-4.21a22.78,22.78,0,0,0,2.79-6.74h6ZM212,286.67A10.92,10.92,0,1,1,223,275.75,10.92,10.92,0,0,1,212,286.67Z"/><path class="cls-1" d="M404.92,208.24l23.91,19.53a30.74,30.74,0,0,0,7-19.53H404.92Z"/><path class="cls-5" d="M393.83,179.42a30.87,30.87,0,1,0,35,48.35l-23.91-19.53Z"/><path class="cls-3" d="M407.78,173.5a30.78,30.78,0,0,0-11.09,2.06l11.09,28.82h30.88A30.87,30.87,0,0,0,407.78,173.5Z"/><rect class="cls-1" x="226.63" y="304" width="14" height="164.33"/><rect class="cls-2" x="225.38" y="462.42" width="16.5" height="5.91"/><polygon class="cls-2" points="240.63 304 240.63 310.02 226.63 314.38 226.63 304 240.63 304"/><rect class="cls-1" x="332.54" y="304" width="14" height="164.33"/><rect class="cls-2" x="331.29" y="462.42" width="16.5" height="5.91"/><polygon class="cls-2" points="346.54 304 346.54 310.02 332.54 314.38 332.54 304 346.54 304"/><rect class="cls-5" x="213.96" y="69.33" width="145.25" height="234.67" rx="11.21" ry="11.21"/><circle class="cls-6" cx="244.39" cy="251.39" r="9.39"/><path class="cls-1" d="M238.5,249.81l5.78,5.78a1.5,1.5,0,0,0,2.12,0L258.5,243.5a1.5,1.5,0,0,0-2.12-2.12l-11,11-4.72-4.72a1.5,1.5,0,1,0-2.12,2.12h0Z"/><rect class="cls-1" x="235" y="266" width="18.77" height="3.5" rx="1.75" ry="1.75"/><circle class="cls-6" cx="284" cy="251.39" r="9.39"/><path class="cls-1" d="M278.12,249.81l5.78,5.78a1.5,1.5,0,0,0,2.12,0l12.09-12.09a1.5,1.5,0,0,0-2.12-2.12l-11,11-4.72-4.72a1.5,1.5,0,1,0-2.12,2.12h0Z"/><rect class="cls-1" x="274.62" y="266" width="18.77" height="3.5" rx="1.75" ry="1.75"/><circle class="cls-6" cx="323.62" cy="251.39" r="9.39"/><path class="cls-1" d="M317.73,249.81l5.78,5.78a1.5,1.5,0,0,0,2.12,0l12.09-12.09a1.5,1.5,0,0,0-2.12-2.12l-11,11-4.72-4.72a1.5,1.5,0,0,0-2.12,2.12h0Z"/><rect class="cls-1" x="314.23" y="266" width="18.77" height="3.5" rx="1.75" ry="1.75"/><rect class="cls-6" x="222.42" y="85.07" width="128.33" height="84.93" rx="2.36" ry="2.36"/><path class="cls-2" d="M343.67,162.83H229.5a0.5,0.5,0,0,1-.5-0.5v-70a0.5,0.5,0,1,1,1,0v69.5H343.67A0.5,0.5,0,0,1,343.67,162.83Z"/><path class="cls-5" d="M239,152.42a0.5,0.5,0,0,1-.37-0.84l24.86-27a0.5,0.5,0,0,1,.7,0L280,138.77l23.74-28.43a0.51,0.51,0,0,1,.4-0.18l30,1.06a0.5,0.5,0,0,1,.48.52,0.47,0.47,0,0,1-.52.48l-29.78-1-23.91,28.64a0.5,0.5,0,0,1-.35.18,0.5,0.5,0,0,1-.37-0.13l-15.77-14.22-24.53,26.62A0.5,0.5,0,0,1,239,152.42Z"/><circle class="cls-1" cx="334.13" cy="111.71" r="2.56"/><circle class="cls-1" cx="304.15" cy="110.66" r="2.56"/><circle class="cls-1" cx="280" cy="139.42" r="2.56"/><circle class="cls-1" cx="263.95" cy="125.2" r="2.56"/><circle class="cls-1" cx="239.04" cy="151.92" r="2.56"/><path class="cls-5" d="M259.8,149.86a0.5,0.5,0,0,1-.37-0.16l-20.77-22.84a0.5,0.5,0,0,1,.74-0.67l20.34,22.37L283.06,114a0.5,0.5,0,0,1,.36-0.22,0.49,0.49,0,0,1,.4.14l17.75,17.19,32.19-35.85a0.5,0.5,0,1,1,.74.67L302,132.15a0.5,0.5,0,0,1-.72,0L283.56,115l-23.34,34.6a0.5,0.5,0,0,1-.38.22h0Z"/><circle class="cls-1" cx="301.6" cy="131.88" r="2.56"/><circle class="cls-1" cx="334.13" cy="95.58" r="2.56"/><circle class="cls-1" cx="283.48" cy="114.27" r="2.56"/><circle class="cls-1" cx="259.8" cy="149.36" r="2.56"/><circle class="cls-1" cx="239.04" cy="126.48" r="2.56"/><path class="cls-2" d="M350.75,230H222.42a0.5,0.5,0,0,1,0-1H350.25V178.5a0.5,0.5,0,0,1,1,0v51A0.5,0.5,0,0,1,350.75,230Z"/><path class="cls-3" d="M232.1,227.56a0.49,0.49,0,0,1-.17,0,0.5,0.5,0,0,1-.31-0.64c3.52-10,9.4-9.48,13.69-9.08a21.6,21.6,0,0,0,2.46.14c1.72,0,2.81-2.24,4.08-4.78,1.64-3.28,3.49-7,7.45-7.64,3.39-.55,5.46.89,7.64,2.41,2.36,1.64,4.79,3.34,9.3,2.67,4.15-.61,6.76-4.3,9.28-7.87,2.67-3.77,5.43-7.67,10-7.76h0.13c3.91,0,7.07,3.31,10.4,6.8,4.17,4.36,8.87,9.32,16,8.78,12.77-1,26.08-15.27,26.22-15.42a0.5,0.5,0,0,1,.74.68c-0.55.6-13.71,14.75-26.88,15.74-7.55.57-12.48-4.56-16.79-9.08-3.36-3.52-6.27-6.56-9.8-6.49-4.07.08-6.57,3.6-9.21,7.33s-5.38,7.6-10,8.28c-4.9.72-7.62-1.17-10-2.84-2.1-1.47-3.92-2.73-6.91-2.24-3.45.56-5.18,4-6.71,7.09-1.35,2.71-2.63,5.27-4.95,5.33a23.13,23.13,0,0,1-2.58-.14c-4.19-.39-9.4-0.87-12.66,8.42A0.5,0.5,0,0,1,232.1,227.56Z"/><path class="cls-2" d="M231.2,227.56h-0.09a0.5,0.5,0,0,1-.4-0.58c0.11-.61,2.76-15.09,10.64-17.36,4.12-1.19,7.74,0,10.95,1,2.89,0.94,5.62,1.83,8.25.82s4.23-3.48,6.07-6.15c2.25-3.28,4.58-6.67,8.63-7.64,3.66-.88,6.65,1.06,9.81,3.13s6.69,4.36,11.27,3.75,8.14-5.35,11.55-9.93,6.48-8.69,10.67-9.61c4.9-1.08,8.54,1.34,12.07,3.68,2.73,1.82,5.32,3.53,8.42,3.69,6.92,0.34,9.11-4.42,9.2-4.62a0.5,0.5,0,0,1,.92.4c0,0.06-2.52,5.6-10.16,5.22-3.38-.17-6.2-2-8.92-3.85-3.5-2.33-6.82-4.53-11.3-3.54-3.82.84-6.86,4.92-10.08,9.23-3.54,4.75-7.2,9.66-12.22,10.33s-8.66-1.77-11.95-3.9c-3.11-2-5.79-3.77-9-3-3.68.89-5.89,4.12-8,7.24-1.92,2.8-3.74,5.45-6.54,6.52-3,1.13-5.85.19-8.91-.81s-6.54-2.13-10.36-1c-7.28,2.1-9.9,16.43-9.93,16.58A0.5,0.5,0,0,1,231.2,227.56Z"/><path class="cls-2" d="M226.73,221a0.5,0.5,0,0,1-.5-0.5v-2a0.5,0.5,0,0,1,1,0v2A0.5,0.5,0,0,1,226.73,221Zm0-5a0.5,0.5,0,0,1-.5-0.5v-2a0.5,0.5,0,0,1,1,0v2A0.5,0.5,0,0,1,226.73,216Zm0-5a0.5,0.5,0,0,1-.5-0.5v-2a0.5,0.5,0,0,1,1,0v2A0.5,0.5,0,0,1,226.73,211Zm0-5a0.5,0.5,0,0,1-.5-0.5v-2a0.5,0.5,0,0,1,1,0v2A0.5,0.5,0,0,1,226.73,206Zm0-5a0.5,0.5,0,0,1-.5-0.5v-2a0.5,0.5,0,0,1,1,0v2A0.5,0.5,0,0,1,226.73,201Zm0-5a0.5,0.5,0,0,1-.5-0.5v-2a0.5,0.5,0,0,1,1,0v2A0.5,0.5,0,0,1,226.73,196Zm0-5a0.5,0.5,0,0,1-.5-0.5v-2a0.5,0.5,0,0,1,1,0v2A0.5,0.5,0,0,1,226.73,191Zm0-5a0.5,0.5,0,0,1-.5-0.5v-2a0.5,0.5,0,0,1,1,0v2A0.5,0.5,0,0,1,226.73,186Zm0-5a0.5,0.5,0,0,1-.5-0.5v-2a0.5,0.5,0,0,1,1,0v2A0.5,0.5,0,0,1,226.73,181Z"/><path class="cls-2" d="M242.64,206a0.5,0.5,0,0,1-.5-0.5v-2a0.5,0.5,0,0,1,1,0v2A0.5,0.5,0,0,1,242.64,206Zm0-5a0.5,0.5,0,0,1-.5-0.5v-2a0.5,0.5,0,0,1,1,0v2A0.5,0.5,0,0,1,242.64,201Zm0-5a0.5,0.5,0,0,1-.5-0.5v-2a0.5,0.5,0,0,1,1,0v2A0.5,0.5,0,0,1,242.64,196Zm0-5a0.5,0.5,0,0,1-.5-0.5v-2a0.5,0.5,0,0,1,1,0v2A0.5,0.5,0,0,1,242.64,191Zm0-5a0.5,0.5,0,0,1-.5-0.5v-2a0.5,0.5,0,0,1,1,0v2A0.5,0.5,0,0,1,242.64,186Zm0-5a0.5,0.5,0,0,1-.5-0.5v-2a0.5,0.5,0,0,1,1,0v2A0.5,0.5,0,0,1,242.64,181Z"/><path class="cls-2" d="M258.54,204.71a0.5,0.5,0,0,1-.5-0.5V203.5a0.5,0.5,0,0,1,1,0v0.71A0.5,0.5,0,0,1,258.54,204.71Zm0-3.71a0.5,0.5,0,0,1-.5-0.5v-2a0.5,0.5,0,0,1,1,0v2A0.5,0.5,0,0,1,258.54,201Zm0-5a0.5,0.5,0,0,1-.5-0.5v-2a0.5,0.5,0,0,1,1,0v2A0.5,0.5,0,0,1,258.54,196Zm0-5a0.5,0.5,0,0,1-.5-0.5v-2a0.5,0.5,0,0,1,1,0v2A0.5,0.5,0,0,1,258.54,191Zm0-5a0.5,0.5,0,0,1-.5-0.5v-2a0.5,0.5,0,0,1,1,0v2A0.5,0.5,0,0,1,258.54,186Zm0-5a0.5,0.5,0,0,1-.5-0.5v-2a0.5,0.5,0,0,1,1,0v2A0.5,0.5,0,0,1,258.54,181Z"/><path class="cls-2" d="M274.45,196a0.5,0.5,0,0,1-.5-0.5v-2a0.5,0.5,0,0,1,1,0v2A0.5,0.5,0,0,1,274.45,196Zm0-5a0.5,0.5,0,0,1-.5-0.5v-2a0.5,0.5,0,0,1,1,0v2A0.5,0.5,0,0,1,274.45,191Zm0-5a0.5,0.5,0,0,1-.5-0.5v-2a0.5,0.5,0,0,1,1,0v2A0.5,0.5,0,0,1,274.45,186Zm0-5a0.5,0.5,0,0,1-.5-0.5v-2a0.5,0.5,0,0,1,1,0v2A0.5,0.5,0,0,1,274.45,181Z"/><path class="cls-2" d="M290.35,195.31a0.5,0.5,0,0,1-.5-0.5V193.5a0.5,0.5,0,0,1,1,0v1.31A0.5,0.5,0,0,1,290.35,195.31Zm0-4.31a0.5,0.5,0,0,1-.5-0.5v-2a0.5,0.5,0,0,1,1,0v2A0.5,0.5,0,0,1,290.35,191Zm0-5a0.5,0.5,0,0,1-.5-0.5v-2a0.5,0.5,0,0,1,1,0v2A0.5,0.5,0,0,1,290.35,186Zm0-5a0.5,0.5,0,0,1-.5-0.5v-2a0.5,0.5,0,0,1,1,0v2A0.5,0.5,0,0,1,290.35,181Z"/><path class="cls-2" d="M306.25,194.6a0.5,0.5,0,0,1-.5-0.5v-0.6a0.5,0.5,0,0,1,1,0v0.6A0.5,0.5,0,0,1,306.25,194.6Zm0-3.6a0.5,0.5,0,0,1-.5-0.5v-2a0.5,0.5,0,0,1,1,0v2A0.5,0.5,0,0,1,306.25,191Zm0-5a0.5,0.5,0,0,1-.5-0.5v-2a0.5,0.5,0,0,1,1,0v2A0.5,0.5,0,0,1,306.25,186Zm0-5a0.5,0.5,0,0,1-.5-0.5v-2a0.5,0.5,0,0,1,1,0v2A0.5,0.5,0,0,1,306.25,181Z"/><path class="cls-2" d="M322.16,184.35a0.5,0.5,0,0,1-.5-0.5V183.5a0.5,0.5,0,0,1,1,0v0.35A0.5,0.5,0,0,1,322.16,184.35Zm0-3.35a0.5,0.5,0,0,1-.5-0.5v-2a0.5,0.5,0,0,1,1,0v2A0.5,0.5,0,0,1,322.16,181Z"/><path class="cls-2" d="M338.06,189.88a0.5,0.5,0,0,1-.5-0.5V188.5a0.5,0.5,0,0,1,1,0v0.88A0.5,0.5,0,0,1,338.06,189.88Zm0-3.87a0.5,0.5,0,0,1-.5-0.5v-2a0.5,0.5,0,0,1,1,0v2A0.5,0.5,0,0,1,338.06,186Zm0-5a0.5,0.5,0,0,1-.5-0.5v-2a0.5,0.5,0,0,1,1,0v2A0.5,0.5,0,0,1,338.06,181Z"/><path class="cls-2" d="M409.45,290.63h-0.68a0.5,0.5,0,0,1,0-1h0.8l1.18,0a0.48,0.48,0,0,1,.52.48,0.5,0.5,0,0,1-.48.52l-1.21,0h-0.14Zm-3.66-.16h0q-1-.1-2-0.25a0.5,0.5,0,1,1,.16-1q0.94,0.15,2,.24A0.5,0.5,0,0,1,405.79,290.46Zm8-.13a0.5,0.5,0,0,1-.07-1c0.65-.09,1.3-0.21,1.93-0.34a0.49,0.49,0,0,1,.59.38,0.5,0.5,0,0,1-.38.59c-0.65.14-1.33,0.26-2,.36h-0.07Zm-12.89-.73-0.13,0c-0.67-.18-1.32-0.39-1.95-0.61a0.5,0.5,0,1,1,.34-0.94c0.6,0.22,1.22.41,1.87,0.59A0.5,0.5,0,0,1,400.88,289.6Zm17.74-.42a0.5,0.5,0,0,1-.16-1c0.62-.21,1.23-0.45,1.82-0.72a0.5,0.5,0,1,1,.41.91c-0.61.27-1.25,0.52-1.9,0.75Zm-22.38-1.39a0.49,0.49,0,0,1-.24-0.06,18.74,18.74,0,0,1-1.75-1.07,0.5,0.5,0,0,1,.57-0.82,17.54,17.54,0,0,0,1.66,1A0.5,0.5,0,0,1,396.23,287.78Zm26.89-.73a0.5,0.5,0,0,1-.26-0.93c0.55-.34,1.09-0.71,1.62-1.1a0.5,0.5,0,0,1,.6.8c-0.54.41-1.11,0.79-1.69,1.15A0.49,0.49,0,0,1,423.13,287Zm-43.46-.74h0c-0.68,0-1.37-.09-2-0.18a0.5,0.5,0,0,1-.43-0.56,0.49,0.49,0,0,1,.56-0.43c0.64,0.08,1.29.14,2,.17A0.5,0.5,0,0,1,379.67,286.31Zm3-.06a0.5,0.5,0,0,1,0-1c0.64-.05,1.29-0.13,1.95-0.23a0.51,0.51,0,0,1,.57.42,0.5,0.5,0,0,1-.42.57c-0.68.11-1.36,0.19-2,.24h0Zm-7.93-.7-0.13,0c-0.66-.17-1.31-0.38-2-0.61A0.5,0.5,0,1,1,373,284c0.61,0.22,1.24.42,1.87,0.58A0.5,0.5,0,0,1,374.74,285.56Zm12.85-.16a0.5,0.5,0,0,1-.13-1q0.93-.25,1.88-0.57a0.5,0.5,0,1,1,.32.95q-1,.33-1.94.59Zm4.64-.57a0.5,0.5,0,0,1-.35-0.15,16,16,0,0,1-1.36-1.55,0.5,0.5,0,0,1,.79-0.61q0.23,0.31.49,0.6a0.5,0.5,0,0,1,.28-0.37c0.6-.29,1.18-0.59,1.72-0.92a0.5,0.5,0,0,1,.51.86c-0.57.34-1.18,0.66-1.8,1a0.5,0.5,0,0,1-.18,0l0.26,0.27A0.5,0.5,0,0,1,392.22,284.83Zm34.83-.86a0.5,0.5,0,0,1-.35-0.86c0.46-.45.91-0.94,1.33-1.43a0.5,0.5,0,1,1,.76.65c-0.44.52-.91,1-1.39,1.5A0.5,0.5,0,0,1,427.05,284Zm-57-.21a0.49,0.49,0,0,1-.23-0.06c-0.6-.31-1.2-0.65-1.77-1a0.5,0.5,0,1,1,.53-0.85c0.55,0.35,1.12.68,1.7,1A0.5,0.5,0,0,1,370.08,283.76ZM396.49,281a0.5,0.5,0,0,1-.32-0.88,15.39,15.39,0,0,0,1.39-1.34,0.5,0.5,0,1,1,.74.67,16,16,0,0,1-1.49,1.43A0.5,0.5,0,0,1,396.49,281Zm-30.57,0a0.5,0.5,0,0,1-.32-0.12,14.86,14.86,0,0,1-1.51-1.43,0.5,0.5,0,0,1,.75-0.66,14,14,0,0,0,1.4,1.32A0.5,0.5,0,0,1,365.92,281Zm23.41-.22a0.5,0.5,0,0,1-.45-0.28,15.46,15.46,0,0,1-.78-1.91,0.5,0.5,0,1,1,.95-0.31,14.3,14.3,0,0,0,.73,1.79A0.5,0.5,0,0,1,389.33,280.78Zm40.88-.68a0.5,0.5,0,0,1-.42-0.77c0.36-.54.69-1.11,1-1.68a0.5,0.5,0,1,1,.88.48c-0.32.59-.67,1.18-1,1.75A0.5,0.5,0,0,1,430.21,280.11Zm-30.51-2.88a0.5,0.5,0,0,1-.43-0.75,11.67,11.67,0,0,0,.81-1.73,0.5,0.5,0,0,1,.94.35,12.74,12.74,0,0,1-.88,1.88A0.5,0.5,0,0,1,399.69,277.23ZM387.91,276a0.5,0.5,0,0,1-.5-0.44,15.55,15.55,0,0,1-.12-1.92v-0.14a0.5,0.5,0,0,1,1,0v0.14a14.52,14.52,0,0,0,.11,1.8,0.5,0.5,0,0,1-.43.56h-0.06Zm44.6-.33a0.5,0.5,0,0,1-.46-0.69c0.24-.6.47-1.22,0.67-1.84a0.5,0.5,0,0,1,1,.31c-0.21.65-.45,1.29-0.7,1.91A0.5,0.5,0,0,1,432.51,275.68Zm-31.32-3.18h0a0.5,0.5,0,0,1-.46-0.54c0-.25,0-0.5,0-0.75a8.9,8.9,0,0,0-.07-1.14,0.5,0.5,0,1,1,1-.13,10.05,10.05,0,0,1,.08,1.28q0,0.41,0,.82A0.5,0.5,0,0,1,401.19,272.5ZM388.13,271H388a0.5,0.5,0,0,1-.38-0.6,12.83,12.83,0,0,1,.61-2,0.5,0.5,0,0,1,.93.37,11.86,11.86,0,0,0-.56,1.83A0.5,0.5,0,0,1,388.13,271Zm45.85-.14h-0.11a0.5,0.5,0,0,1-.38-0.59q0.21-1,.36-1.94a0.5,0.5,0,1,1,1,.15q-0.15,1-.37,2A0.5,0.5,0,0,1,434,270.91Zm-33.74-3.25a0.5,0.5,0,0,1-.44-0.26,6.24,6.24,0,0,0-1.1-1.48,0.5,0.5,0,1,1,.7-0.71,7.23,7.23,0,0,1,1.28,1.72,0.5,0.5,0,0,1-.2.68A0.51,0.51,0,0,1,400.25,267.66Zm-10-1.11a0.5,0.5,0,0,1-.38-0.82,7.26,7.26,0,0,1,1.58-1.44,0.5,0.5,0,1,1,.55.84,6.27,6.27,0,0,0-1.36,1.24A0.5,0.5,0,0,1,390.22,266.55Zm44.43-.59h0a0.5,0.5,0,0,1-.47-0.53q0-.89,0-1.77v-0.19a0.5,0.5,0,0,1,.49-0.51,0.52,0.52,0,0,1,.51.49v0.21q0,0.91-.05,1.83A0.5,0.5,0,0,1,434.65,266Zm-38.16-1.39-0.14,0a5.91,5.91,0,0,0-1.6-.22h-0.23a0.51,0.51,0,0,1-.52-0.48,0.5,0.5,0,0,1,.48-0.52h0.26a6.92,6.92,0,0,1,1.87.25A0.5,0.5,0,0,1,396.5,264.56Zm38-3.6a0.5,0.5,0,0,1-.5-0.45q-0.1-1-.26-2a0.5,0.5,0,1,1,1-.16q0.17,1,.27,2a0.5,0.5,0,0,1-.45.55h-0.05Zm-0.9-4.92a0.5,0.5,0,0,1-.48-0.37c-0.17-.63-0.37-1.27-0.58-1.88a0.5,0.5,0,1,1,.94-0.33c0.22,0.63.42,1.29,0.6,1.94a0.5,0.5,0,0,1-.35.61Zm-1.74-4.68a0.5,0.5,0,0,1-.45-0.28c-0.29-.59-0.6-1.17-0.93-1.72a0.5,0.5,0,1,1,.86-0.51c0.34,0.58.67,1.18,1,1.8A0.5,0.5,0,0,1,431.91,251.37Zm-2.67-4.21a0.5,0.5,0,0,1-.39-0.18c-0.36-.44-0.73-0.85-1.12-1.24a0.5,0.5,0,0,1,.71-0.7c0.41,0.41.8,0.85,1.18,1.31A0.5,0.5,0,0,1,429.24,247.15Z"/><path class="cls-2" d="M426.69,246.45l2.88-2.25a0.45,0.45,0,0,0-.08-0.77l-4-1.89a0.45,0.45,0,0,0-.63.52l1.08,4.14A0.45,0.45,0,0,0,426.69,246.45Z"/><rect class="cls-1" x="370.46" y="116.25" width="35.75" height="25.5" rx="2.61" ry="2.61"/><path class="cls-6" d="M388.34,128.9a3.11,3.11,0,0,1-1.81-.58l-13.64-9.73a0.5,0.5,0,1,1,.58-0.81l13.64,9.73a2.12,2.12,0,0,0,2.46,0l13.64-9.73a0.5,0.5,0,1,1,.58.81l-13.64,9.73A3.11,3.11,0,0,1,388.34,128.9Z"/><path class="cls-6" d="M403.5,140.31a0.5,0.5,0,0,1-.29-0.09l-13.74-9.8a0.5,0.5,0,1,1,.58-0.81l13.74,9.8A0.5,0.5,0,0,1,403.5,140.31Z"/><path class="cls-6" d="M373.18,140.31a0.5,0.5,0,0,1-.29-0.91l13.73-9.8a0.5,0.5,0,1,1,.58.81l-13.73,9.8A0.5,0.5,0,0,1,373.18,140.31Z"/><rect class="cls-5" x="203.79" y="38.58" width="21.33" height="21.33" rx="2.67" ry="2.67"/><rect class="cls-1" x="230.96" y="38.58" width="23.83" height="4.31" rx="2.15" ry="2.15"/><rect class="cls-1" x="230.96" y="47.1" width="23.83" height="4.31" rx="2.15" ry="2.15"/><rect class="cls-1" x="230.96" y="55.61" width="23.83" height="4.31" rx="2.15" ry="2.15"/><path class="cls-1" d="M197.09,238.13a0.5,0.5,0,0,1-.5-0.5v-2.47a0.5,0.5,0,0,1,1,0v2.47A0.5,0.5,0,0,1,197.09,238.13Z"/><path class="cls-1" d="M200.78,239.35h-2.47a0.5,0.5,0,1,1,0-1h2.47A0.5,0.5,0,0,1,200.78,239.35Z"/><path class="cls-1" d="M197.09,243a0.5,0.5,0,0,1-.5-0.5v-2.47a0.5,0.5,0,0,1,1,0v2.47A0.5,0.5,0,0,1,197.09,243Z"/><path class="cls-1" d="M195.87,239.35H193.4a0.5,0.5,0,0,1,0-1h2.47A0.5,0.5,0,0,1,195.87,239.35Z"/><path class="cls-1" d="M370.78,301.52a0.5,0.5,0,0,1-.5-0.5v-3.49a0.5,0.5,0,0,1,1,0V301A0.5,0.5,0,0,1,370.78,301.52Z"/><path class="cls-1" d="M376,303.25h-3.49a0.5,0.5,0,0,1,0-1H376A0.5,0.5,0,0,1,376,303.25Z"/><path class="cls-1" d="M370.78,308.47a0.5,0.5,0,0,1-.5-0.5v-3.49a0.5,0.5,0,0,1,1,0V308A0.5,0.5,0,0,1,370.78,308.47Z"/><path class="cls-1" d="M369.06,303.25h-3.49a0.5,0.5,0,0,1,0-1h3.49A0.5,0.5,0,1,1,369.06,303.25Z"/><path class="cls-1" d="M378,163.91a0.5,0.5,0,0,1-.5-0.5v-2.47a0.5,0.5,0,1,1,1,0v2.47A0.5,0.5,0,0,1,378,163.91Z"/><path class="cls-1" d="M381.69,165.13h-2.47a0.5,0.5,0,0,1,0-1h2.47A0.5,0.5,0,0,1,381.69,165.13Z"/><path class="cls-1" d="M378,168.82a0.5,0.5,0,0,1-.5-0.5v-2.47a0.5,0.5,0,0,1,1,0v2.47A0.5,0.5,0,0,1,378,168.82Z"/><path class="cls-1" d="M376.78,165.13h-2.47a0.5,0.5,0,0,1,0-1h2.47A0.5,0.5,0,0,1,376.78,165.13Z"/><path class="cls-1" d="M364.46,60.72a0.5,0.5,0,0,1-.5-0.5V56.81a0.5,0.5,0,0,1,1,0v3.41A0.5,0.5,0,0,1,364.46,60.72Z"/><path class="cls-1" d="M369.56,62.4h-3.41a0.5,0.5,0,0,1,0-1h3.41A0.5,0.5,0,0,1,369.56,62.4Z"/><path class="cls-1" d="M364.46,67.5A0.5,0.5,0,0,1,364,67V63.59a0.5,0.5,0,1,1,1,0V67A0.5,0.5,0,0,1,364.46,67.5Z"/><path class="cls-1" d="M362.78,62.4h-3.41a0.5,0.5,0,0,1,0-1h3.41A0.5,0.5,0,0,1,362.78,62.4Z"/><circle class="cls-1" cx="190.46" cy="82" r="6.25"/><circle class="cls-1" cx="190.46" cy="100.68" r="1.99"/><circle class="cls-5" cx="402.17" cy="158.29" r="4.04"/><circle class="cls-5" cx="411.36" cy="151.92" r="1.65"/><circle class="cls-1" cx="199.4" cy="327.67" r="4.04"/><circle class="cls-1" cx="208.6" cy="321.3" r="1.65"/><circle class="cls-5" cx="386.27" cy="308.21" r="4.04"/><circle class="cls-1" cx="395.46" cy="301.84" r="1.65"/><polygon class="cls-4" points="92.22 421.24 86.62 432.11 93.06 435.37 99.36 425.23 92.22 421.24"/><path class="cls-3" d="M87.18,429.36s4,3.82,8.48,4.9c0,0-.74,15.11.25,21s5.56,11.5,5.44,12.8-9.51-3-14.89-6.8-6.54-12.5-6.54-12.5l-3.65,5.87-4-2.11s4-10,6.38-14S87.18,429.36,87.18,429.36Z"/><path class="cls-4" d="M94.69,447.92H94.62c-0.17,0-4.12-.65-4.56-3-0.38-2-.07-11.58-0.06-12a0.51,0.51,0,0,1,.52-0.48A0.5,0.5,0,0,1,91,433c0,0.1-.32,9.85,0,11.77,0.26,1.36,2.78,2,3.72,2.17A0.5,0.5,0,0,1,94.69,447.92Z"/><path class="cls-1" d="M174.71,241.25s-7,84.25-12.25,101.75-61,87.74-61,87.74S92,428,90,422c0,0,35.75-72.49,38-76s0.75-84.5,5.5-108S169.71,207,174.71,241.25Z"/><path class="cls-2" d="M171.61,256.91a0.5,0.5,0,0,1-.18,0A8.41,8.41,0,0,1,166,250a0.5,0.5,0,0,1,1-.08,7.41,7.41,0,0,0,4.75,6A0.5,0.5,0,0,1,171.61,256.91Z"/><path class="cls-2" d="M97.71,421.74a0.5,0.5,0,0,1-.42-0.77c15.37-24.11,44.68-70.37,45.66-72.9s2.56-41.27,3.27-61.42a0.51,0.51,0,0,1,.52-0.48,0.5,0.5,0,0,1,.48.52c-0.08,2.38-2.07,58.45-3.33,61.74s-43.93,70.23-45.75,73.08A0.5,0.5,0,0,1,97.71,421.74Z"/><path class="cls-2" d="M102.21,427.3l-0.15,0a17.76,17.76,0,0,1-9.46-7,0.5,0.5,0,0,1,.86-0.51,17.08,17.08,0,0,0,8.91,6.59A0.5,0.5,0,0,1,102.21,427.3Z"/><polygon class="cls-4" points="125.98 431.19 126.96 443.38 134.15 442.75 134.15 430.81 125.98 431.19"/><path class="cls-3" d="M126,440.75s5.42,1.13,9.79-.31c0,0,7.35,13.23,11.31,17.73s10.79,6.83,11.38,8-9.65,2.5-16.24,2.08-12.16-7.17-12.16-7.17V468l-4.52.33s-1.87-10.66-2-15.24S126,440.75,126,440.75Z"/><path class="cls-4" d="M138.91,453.29a3,3,0,0,1-2.25-.82c-1.4-1.52-6.17-9.8-6.38-10.15a0.5,0.5,0,1,1,.87-0.5c0,0.08,4.93,8.53,6.25,10,0.93,1,3.43.26,4.31-.12a0.5,0.5,0,0,1,.39.92A9.26,9.26,0,0,1,138.91,453.29Z"/><path class="cls-1" d="M147,249.67s-8.17,96.33-8.83,112.67,0,69.67,0,69.67-7.75,3.13-14.5.38c0,0-22.83-153.71-24.5-164.71s-2-24,2.33-41S148.54,202.33,147,249.67Z"/><path class="cls-2" d="M137.94,378.83h0a0.5,0.5,0,0,1-.5-0.5c0-7.17.13-12.56,0.27-16,0.66-16.16,8.75-111.72,8.83-112.69,0.44-14-3-24.51-10-30.4a0.5,0.5,0,0,1,.64-0.77c5.06,4.25,11,13.12,10.4,31.22-0.08,1-8.17,96.54-8.83,112.67-0.14,3.45-.23,8.82-0.27,16A0.5,0.5,0,0,1,137.94,378.83Z"/><path class="cls-2" d="M143.78,289.38a0.5,0.5,0,0,1-.29-0.91s4.62-3.22,5.67-4.87c0.77-1.24,2.66-19.84,3.67-31.27a0.5,0.5,0,0,1,1,.09c-0.27,3.06-2.67,29.92-3.83,31.73s-5.75,5-5.94,5.15A0.5,0.5,0,0,1,143.78,289.38Z"/><path class="cls-2" d="M119.49,404.5a0.5,0.5,0,0,1-.49-0.43l-4.12-27.73a0.5,0.5,0,0,1,1-.15L120,403.92a0.5,0.5,0,0,1-.42.57h-0.07Z"/><path class="cls-2" d="M106.23,266.86a0.5,0.5,0,0,1,0-1c3-.15,5.3-1.1,6.83-2.82A9.12,9.12,0,0,0,115.1,257a0.5,0.5,0,0,1,.46-0.54,0.49,0.49,0,0,1,.53.46,10,10,0,0,1-2.31,6.8c-1.71,1.93-4.24,3-7.53,3.16h0Z"/><path class="cls-2" d="M126,428.27a0.5,0.5,0,0,1-.5-0.44L104.72,258.06a62.74,62.74,0,0,1,0-7,0.5,0.5,0,1,1,1,.08,63.32,63.32,0,0,0,0,6.83l20.77,169.74a0.5,0.5,0,0,1-.44.56H126Z"/><path class="cls-2" d="M129.53,430.62a35.71,35.71,0,0,1-4.83-.32,0.5,0.5,0,1,1,.15-1c0.07,0,6.7,1,11.65-.61a0.5,0.5,0,1,1,.3,1A24.82,24.82,0,0,1,129.53,430.62Z"/><path class="cls-4" d="M193.13,160.25l4-10.71s-2-4.25-2.42-5.58,0-6.21,0-8.29-0.46-3.87-.33-4.92,2.71-1.25,3.38,1.79a42.14,42.14,0,0,1,.83,5.17s2.38-7.62,3.54-9.58,3-1.33,3.29-.46c0,0,1.17-1.29,2.38-.67s0.71,2.46.71,2.46,2.17,0,1.54,3.54c0,0,2.16.22,1.41,2.72s-2.75,7-2.75,7-1.49,6.41-1.91,7.53-2.58,2-2.58,2l-2.62,11.46Z"/><path class="cls-2" d="M208.17,141.13a0.5,0.5,0,0,1-.32-0.12,23.14,23.14,0,0,0-7.56-4,0.5,0.5,0,1,1,.27-1,23.79,23.79,0,0,1,7.94,4.23A0.5,0.5,0,0,1,208.17,141.13Z"/><path class="cls-2" d="M202.81,136.16l-0.17,0a0.5,0.5,0,0,1-.31-0.64l2.34-6.66a0.5,0.5,0,1,1,.94.33l-2.34,6.66A0.5,0.5,0,0,1,202.81,136.16Z"/><path class="cls-2" d="M205.68,137.44l-0.14,0a0.5,0.5,0,0,1-.34-0.62c0.84-2.8,2.31-6.36,2.33-6.39a0.5,0.5,0,1,1,.92.38s-1.47,3.54-2.29,6.3A0.5,0.5,0,0,1,205.68,137.44Z"/><path class="cls-2" d="M207.86,138.82a0.49,0.49,0,0,1-.17,0,0.5,0.5,0,0,1-.3-0.64C207.8,137,209,134,209,134l0.93,0.36s-1.16,3.05-1.57,4.17A0.5,0.5,0,0,1,207.86,138.82Z"/><path class="cls-3" d="M162,147.67c6.5,4.67,18.67,35.33,18.67,35.33L191,158.83s8,0.17,12,5c0,0-5,42-13.67,49.83s-18.5-2.83-29.17-20.33S145.8,166.22,146.59,157C147.79,142.92,162,147.67,162,147.67Z"/><path class="cls-4" d="M201.17,167a0.5,0.5,0,0,1-.28-0.09,29.72,29.72,0,0,0-10.14-4,0.5,0.5,0,0,1,.17-1A30.2,30.2,0,0,1,201.45,166,0.5,0.5,0,0,1,201.17,167Z"/><path class="cls-4" d="M177.4,202.81a0.5,0.5,0,0,1-.5-0.44A32.23,32.23,0,0,1,180,184a0.5,0.5,0,0,1,.87.5,31.84,31.84,0,0,0-3,17.76,0.5,0.5,0,0,1-.44.55H177.4Z"/><path class="cls-3" d="M131.88,136.58c-8.85-.24-24.67,11.58-30.17,16.25-5.5,11.17,1,39.58.13,50.92s-9.75,43.5-9.75,43.5a68.1,68.1,0,0,0,51.79,11.25c30.17-5.83,34.83-17.17,34.83-17.17s-10-23.17-13-46.17c0,0,5.83-12.33,5.67-18.5s-9.33-29-9.33-29S147,137,131.88,136.58Z"/><path class="cls-4" d="M166.65,201.69a0.5,0.5,0,0,1-.49-0.41c-0.37-2.06-.69-4.1-0.94-6a0.5,0.5,0,0,1,0-.28c0.06-.12,5.78-12.3,5.62-18.27-0.12-4.54-5.4-18.76-7.67-24.66a0.5,0.5,0,1,1,.93-0.36c2.84,7.39,7.61,20.46,7.74,25,0.16,5.94-5,17.17-5.65,18.59,0.25,1.89.56,3.86,0.91,5.85a0.5,0.5,0,0,1-.4.58h-0.09Z"/><path class="cls-1" d="M132.34,133.75c-6,0-11.79,7.83-6.71,22.92,0,0,4.08-6.92,10.92-8.67s11.25,3.5,11.25,3.5S144,133.75,132.34,133.75Z"/><path class="cls-2" d="M148.9,227l-2,3.63-15.48,28.68c-6.75-.12-8.13-4.25-8.13-4.25l14.59-29.31,1.62-3.25A11.92,11.92,0,0,1,148.9,227Z"/><path class="cls-1" d="M148.9,227l-2,3.63a12,12,0,0,1-9-4.88l1.62-3.25A11.92,11.92,0,0,1,148.9,227Z"/><path class="cls-2" d="M148.9,227c-6.23.88-9.36-4.5-9.36-4.5A11.92,11.92,0,0,1,148.9,227Z"/><path class="cls-1" d="M146.46,215.63l-4,8.44a4.75,4.75,0,0,0,3.88,1.94l4.69-8.25Z"/><ellipse class="cls-2" cx="158.11" cy="200.34" rx="20.58" ry="18.5" transform="translate(-94.79 234.67) rotate(-59.45)"/><ellipse class="cls-1" cx="158.11" cy="200.34" rx="15.67" ry="14.08" transform="translate(-94.79 234.67) rotate(-59.45)"/><path class="cls-5" d="M166.08,186.85c-0.34-.2-0.68-0.37-1-0.53l-17.35,4.47a17.21,17.21,0,0,0-3.09,5.31l24.81-6.39A12.76,12.76,0,0,0,166.08,186.85Z"/><path class="cls-5" d="M170.24,207.5a17.45,17.45,0,0,0,1-2l-23.78,6.13a12.24,12.24,0,0,0,5,3.22l15-3.87A17.29,17.29,0,0,0,170.24,207.5Z"/><path class="cls-5" d="M171.75,193.88l-28.12,7.25a15,15,0,0,0,1.43,7.12l27.38-7.06A15.5,15.5,0,0,0,171.75,193.88Z"/><path class="cls-4" d="M116.65,228.5l8,6,9.38-.93L132.34,237a28.16,28.16,0,0,0,4.81,3.19c1.63,0.63,4.63,0,4.63,0l0.72-1.31S144,241,144,242.31s-0.4,2-2.27,2.66a3.13,3.13,0,0,1-1.54,3.61s0.38,2.1-2.25,2.6a2.64,2.64,0,0,1-2.54,2c-2.12.06-7.46-1.87-9.33-4.06-1.65-1.93-3.94-7.12-3.94-7.12l-11.31-6.94Z"/><path class="cls-2" d="M141,245.41h0c-1.62-.12-4.18-0.22-4.21-0.22a0.5,0.5,0,1,1,0-1s2.61,0.1,4.25.22A0.5,0.5,0,0,1,141,245.41Z"/><path class="cls-2" d="M139.19,249h-0.06c-2.17-.27-4-0.68-4-0.7a0.5,0.5,0,0,1,.22-1s1.82,0.41,3.94.68A0.5,0.5,0,0,1,139.19,249Z"/><path class="cls-2" d="M137.44,251.6h-0.07c-2.16-.32-3.95-0.76-4-0.78a0.5,0.5,0,0,1,.24-1s1.81,0.45,3.92.76A0.5,0.5,0,0,1,137.44,251.6Z"/><path class="cls-3" d="M101.71,152.83s-29.57,33.5-30,48.67c-0.33,11.83,38,36,38,36a17,17,0,0,0,7.63-9.25L93.71,201.17s15-15.19,21-21.83C123,170.17,114.38,144.83,101.71,152.83Z"/><path class="cls-4" d="M109.71,238a0.5,0.5,0,0,1-.27-0.08c-0.05,0-5.15-3.25-11.51-7.84a0.5,0.5,0,0,1,.58-0.81c5.54,4,10.11,6.94,11.21,7.64a16.71,16.71,0,0,0,7-8.55L93.33,201.5a0.5,0.5,0,0,1,0-.68c0.15-.15,15-15.25,21-21.82,4.35-4.79,3.81-14.08.77-20.3-2.27-4.64-5.58-7.14-9.1-6.88a0.49,0.49,0,0,1-.54-0.46,0.5,0.5,0,0,1,.46-0.54c3.95-.3,7.62,2.41,10.07,7.44,3.19,6.52,3.71,16.31-.93,21.41-5.49,6-18.47,19.26-20.69,21.52l23.32,26.73a0.5,0.5,0,0,1,.1.48,17.38,17.38,0,0,1-7.87,9.54A0.5,0.5,0,0,1,109.71,238Z"/><path class="cls-4" d="M92.46,201.69l-0.15,0a28.18,28.18,0,0,0-13.79-.37,0.5,0.5,0,0,1-.24-1,28.67,28.67,0,0,1,14.34.38A0.5,0.5,0,0,1,92.46,201.69Z"/><path class="cls-4" d="M107.65,235.25a0.5,0.5,0,0,1-.23-0.94c3.89-2,6.77-7.12,6.8-7.18a0.5,0.5,0,0,1,.87.49c-0.12.22-3.06,5.4-7.2,7.57A0.49,0.49,0,0,1,107.65,235.25Z"/><path class="cls-2" d="M113.15,98.31s1.91-10.86-7.76-13.84S91.18,88.61,90.31,97.32s-0.17,20.41-7.16,22.3c0,0,8.89,4.47,16.67.46S112.06,104.92,113.15,98.31Z"/><path class="cls-3" d="M119,98.13l-6.58-3.43a4.23,4.23,0,0,0-2.67,4.62s5.81,4,6,3.94S119,98.13,119,98.13Z"/><path class="cls-2" d="M143,98.58s1.33-11.17-16.17-7.75S107.29,120.58,121,125s26.67-7.83,28.58-15.5S146,98.67,143,98.58Z"/><path class="cls-4" d="M138,122.38l-0.5,8.23-0.56,9.08c-6.25,1.43-8.25-1.5-8.25-1.5l1.29-15.09,0.08-1Z"/><path class="cls-2" d="M138,122.38l-0.5,8.23c-4.79-.45-6.74-4.58-7.52-7.51l0.08-1Z"/><path class="cls-4" d="M131.46,98.75c-8.79,3.15-8.38,18.13-2.25,23.75s13.19,6,14.88-.5C146.21,113.88,141.59,95.13,131.46,98.75Z"/><path class="cls-2" d="M124.71,115.81H127s0.19-1.75.56-5.62c0,0,12.44,1.31,15.31-7.06-0.37-6.81-13.37-10.5-18.06-2.62A14.36,14.36,0,0,0,124.71,115.81Z"/><path class="cls-4" d="M126.21,115.19s-2.44-6-6.25-4.56-0.12,10.75,7.25,7.81Z"/><path class="cls-2" d="M125.15,117.47a0.5,0.5,0,0,1-.47-0.33,5.37,5.37,0,0,0-4.36-3.67,0.5,0.5,0,0,1-.46-0.54,0.49,0.49,0,0,1,.53-0.46,6.35,6.35,0,0,1,5.22,4.33A0.5,0.5,0,0,1,125.15,117.47Z"/><path class="cls-2" d="M121.94,116.47l-0.14,0a0.5,0.5,0,0,1-.34-0.62,8.19,8.19,0,0,1,1-2.16,0.5,0.5,0,1,1,.82.58,7.22,7.22,0,0,0-.88,1.86A0.5,0.5,0,0,1,121.94,116.47Z"/><path class="cls-2" d="M129.56,112.16s0.63-3.4,3.22-2.9a0.77,0.77,0,0,1,.46-0.88c0.59-.18,1.17,1.66,1.17,1.66A13.32,13.32,0,0,0,129.56,112.16Z"/><path class="cls-2" d="M143,108.05s-1.82-2.59-2.91-.89a0.72,0.72,0,0,0-.72-0.32c-0.64.26,0.19,1.88,0.19,1.88A5.61,5.61,0,0,1,143,108.05Z"/><ellipse class="cls-2" cx="134.1" cy="115.28" rx="1.3" ry="1.61" transform="translate(-23.86 35.77) rotate(-13.96)"/><circle class="cls-6" cx="134.24" cy="114.66" r="0.35" transform="translate(-23.7 35.78) rotate(-13.96)"/><ellipse class="cls-2" cx="141.54" cy="113.44" rx="1.3" ry="1.61" transform="translate(-23.19 37.51) rotate(-13.96)"/><circle class="cls-6" cx="141.68" cy="112.81" r="0.35" transform="translate(-23.04 37.52) rotate(-13.96)"/><path class="cls-2" d="M139,119.65h0a0.5,0.5,0,0,1,0-1s1.37,0,1.49-.9-1.51-2.49-2.62-3.44a0.5,0.5,0,0,1,.65-0.76c0.53,0.45,3.17,2.77,3,4.33C141.27,119.28,139.76,119.65,139,119.65Z"/><path class="cls-2" d="M134,119.46a4.1,4.1,0,1,1,4.1-4.1A4.11,4.11,0,0,1,134,119.46Zm0-7.21a3.1,3.1,0,1,0,3.1,3.1A3.11,3.11,0,0,0,134,112.25Z"/><path class="cls-2" d="M142.6,117.08a4.1,4.1,0,1,1,4.1-4.1A4.11,4.11,0,0,1,142.6,117.08Zm0-7.21a3.1,3.1,0,1,0,3.1,3.1A3.11,3.11,0,0,0,142.6,109.88Z"/><path class="cls-2" d="M138.21,123.39a7,7,0,0,1-3.74-1.16,0.5,0.5,0,1,1,.53-0.85,5.18,5.18,0,0,0,5.45.44,0.5,0.5,0,0,1,.55.83A5.38,5.38,0,0,1,138.21,123.39Z"/></svg>