<svg height="100%" width="100%" id="bg-svg" viewBox="0 0 1440 400" xmlns="http://www.w3.org/2000/svg" class="transition duration-300 ease-in-out delay-150"><defs><linearGradient id="gradient"><stop offset="5%" stop-color="#00d08466"></stop><stop offset="95%" stop-color="#6ab04c66"></stop></linearGradient></defs><path d="M 0,400 C 0,400 0,100 0,100 C 89.7923076923077,91.19999999999999 179.5846153846154,82.39999999999999 249,92 C 318.4153846153846,101.60000000000001 367.45384615384614,129.6 451,133 C 534.5461538461539,136.4 652.6,115.2 737,109 C 821.4,102.8 872.1461538461538,111.6 949,110 C 1025.8538461538462,108.4 1128.8153846153846,96.4 1215,93 C 1301.1846153846154,89.6 1370.5923076923077,94.8 1440,100 C 1440,100 1440,400 1440,400 Z" stroke="none" stroke-width="0" fill="url(#gradient)" class="transition-all duration-300 ease-in-out delay-150"></path><defs><linearGradient id="gradient"><stop offset="5%" stop-color="#00d08488"></stop><stop offset="95%" stop-color="#6ab04c88"></stop></linearGradient></defs><path d="M 0,400 C 0,400 0,200 0,200 C 60.99230769230769,194.93076923076922 121.98461538461538,189.86153846153846 205,199 C 288.0153846153846,208.13846153846154 393.05384615384617,231.48461538461538 479,233 C 564.9461538461538,234.51538461538462 631.8000000000001,214.20000000000002 722,194 C 812.1999999999999,173.79999999999998 925.7461538461539,153.7153846153846 1003,163 C 1080.253846153846,172.2846153846154 1121.2153846153847,210.93846153846152 1188,222 C 1254.7846153846153,233.06153846153848 1347.3923076923077,216.53076923076924 1440,200 C 1440,200 1440,400 1440,400 Z" stroke="none" stroke-width="0" fill="url(#gradient)" class="transition-all duration-300 ease-in-out delay-150"></path><defs><linearGradient id="gradient"><stop offset="5%" stop-color="#00d084ff"></stop><stop offset="95%" stop-color="#6ab04cff"></stop></linearGradient></defs><path d="M 0,400 C 0,400 0,300 0,300 C 85.04615384615386,293.0974358974359 170.0923076923077,286.1948717948718 253,290 C 335.9076923076923,293.8051282051282 416.676923076923,308.31794871794875 489,301 C 561.323076923077,293.68205128205125 625.2,264.53333333333336 707,270 C 788.8,275.46666666666664 888.5230769230768,315.548717948718 968,316 C 1047.4769230769232,316.451282051282 1106.7076923076925,277.27179487179484 1182,268 C 1257.2923076923075,258.72820512820516 1348.6461538461538,279.3641025641026 1440,300 C 1440,300 1440,400 1440,400 Z" stroke="none" stroke-width="0" fill="url(#gradient)" class="transition-all duration-300 ease-in-out delay-150"></path></svg>