<svg height="512" viewBox="0 0 58 51" width="512" xmlns="http://www.w3.org/2000/svg"><g id="Page-1" fill="none" fill-rule="evenodd"><g id="011---Strengthening-Position" fill-rule="nonzero"><g fill="#4fba6f"><path id="Shape" d="m21 21v13c-1.2770867-.3193899-2.4706729-.9093625-3.5-1.73-.7534138-.5994147-1.5972618-1.075345-2.5-1.41v-9.86c0-.5522847.4477153-1 1-1h4c.5522847 0 1 .4477153 1 1z"/><path id="Shape" d="m32 15v20c-.9336411-.9700552-2.2236492-1.5156889-3.57-1.51h-2.43v-18.49c0-.5522847.4477153-1 1-1h4c.5522847 0 1 .4477153 1 1z"/><path id="Shape" d="m43 9v30l-6 2v-32c0-.55228475.4477153-1 1-1h4c.5522847 0 1 .44771525 1 1z"/><path id="Shape" d="m54 3v32l-6 2v-34c0-.55228475.4477153-1 1-1h4c.5522847 0 1 .44771525 1 1z"/></g><path id="Shape" d="m56.68 37.57-18.74 11.41c-1.0968305.667384-2.3560847 1.020252-3.64 1.02h-28.06l-.24-.05c.1564476-.2922896.23885274-.6184766.24-.95v-21h5.56c1.0937756-.000721 2.1784006.1992567 3.2.59.9027382.334655 1.7465862.8105853 2.5 1.41 1.0293271.8206375 2.2229133 1.4106101 3.5 1.73.719439.1801324 1.4583535.2708173 2.2.27h5.23c1.3463508-.0056889 2.6363589.5399448 3.57 1.51.2783785.2745941.520356.5837876.72.92.4550923.7758214.6577761 1.6739203.58 2.57-.1149405.7636628-.4808464 1.467328-1.04 2h2.35c.4319935.0002223.8610725-.0707278 1.27-.21l1-.33.12-.04 6-2 5-1.67 6.39-2.13c1.120338-.3678364 2.3505552.0181141 3.06.96v.01c.4649441.6171961.6465512 1.4025179.4997758 2.1611752s-.608183 1.4195768-1.2697758 1.8188248z" fill="#fdd7ad"/><path id="Shape" d="m9 7h-2v7c0 .5522847-.44771525 1-1 1h-2c-.55228475 0-1-.4477153-1-1v-7h-2c-.39056531-.00003036-.74537099-.22744095-.90850881-.58230334-.16313783-.35486238-.10474921-.77222723.14950881-1.06869666l4.002-4.349c.1899799-.22146648.46721281-.34890938.759-.34890938s.5690201.1274429.759.34890938l4 4.349c.2544949.29674412.3127367.71457798.14909242 1.0696065s-.51916514.58214559-.91009242.5813935z" fill="#4fba6f"/><path id="Shape" d="m23 7h-2v7c0 .5522847-.4477153 1-1 1h-2c-.5522847 0-1-.4477153-1-1v-7h-2c-.3905653-.00003036-.745371-.22744095-.9085088-.58230334-.1631378-.35486238-.1047492-.77222723.1495088-1.06869666l4-4.349c.1899799-.22146648.4672128-.34890938.759-.34890938s.5690201.1274429.759.34890938l4 4.349c.254258.29646943.3126466.71383428.1495088 1.06869666-.1631378.35486239-.5179435.58227298-.9085088.58230334z" fill="#4fba6f"/><path id="Shape" d="m25.72 37h7.58c-.1149405.7636628-.4808464 1.467328-1.04 2h-6.54c-1.5797578-.0009418-3.1245213.4652706-4.44 1.34l-.72.49c-.1646841.1130289-.3602737.1724043-.56.17-.3321039-.0015914-.6422908-.1660278-.83-.44-.1488534-.2200282-.2040417-.4902421-.1533875-.7510177.0506543-.2607756.2029878-.4906795.4233875-.6389823l.73-.49c1.6440609-1.0946059 3.5748804-1.6790702 5.55-1.68z" fill="#cbb292"/><path id="Shape" d="m9 28v21c0 1.1045695-.8954305 2-2 2h-5c-1.10320187-.0032948-1.9967052-.8967981-2-2v-21c.0032948-1.1032019.89679813-1.9967052 2-2h5c1.10320187.0032948 1.9967052.8967981 2 2z" fill="#955ba5"/></g></g></svg>